<svg xmlns="http://www.w3.org/2000/svg" version="1.1" xmlns:xlink="http://www.w3.org/1999/xlink" xmlns:svgjs="http://svgjs.com/svgjs" width="1000" height="1000"><g transform="matrix(1,0,0,1,0,0)"><svg xmlns="http://www.w3.org/2000/svg" version="1.1" xmlns:xlink="http://www.w3.org/1999/xlink" xmlns:svgjs="http://svgjs.com/svgjs" width="300px" height="265px"><svg width="300px" height="265px" version="1.1" viewBox="0 0 79.375 70.04" xmlns="http://www.w3.org/2000/svg">
 <g transform="translate(-18.262 -131.32)">
  <path d="m86.642 131.32-10.094 10.094a34.478 34.797 0 0 1 8.6127 13.377l12.476-12.476zm-1.4816 23.471-31.503 31.503-24.858-24.858 10.995-10.995 13.863 13.863 22.89-22.89a34.478 34.797 0 0 0-23.808-9.6486 34.478 34.797 0 0 0-34.478 34.797 34.478 34.797 0 0 0 34.478 34.797 34.478 34.797 0 0 0 34.478-34.797 34.478 34.797 0 0 0-2.0574-11.771z" style="stroke-width:.09184"></path>
 </g>
</svg></svg></g></svg>